<svg xmlns="http://www.w3.org/2000/svg" viewBox="0 0 409 402"><path fill="#ffffff" fill-rule="evenodd" d="M77.1583.394959c-1.5255.223049-4.1353.57125-5.7995.773611-8.0386.97697-18.3173 4.98731-26.2237 10.23043-4.5034 2.9865-14.4281 12.9248-17.4923 17.5159-9.5025 14.2373-15.0756 30.6531-17.5603 51.7252-.58951 4.9979-.57034 36.3869.0242 39.6139.2557 1.388.7943 4.794 1.1972 7.57 2.109 14.528 7.6231 29.896 14.5351 40.512 9.3704 14.392 22.0627 23.874 38.2074 28.546 7.2645 2.102 20.9861 2.948 29.5017 1.819 4.1999-.557 10.2969-1.96 14.6249-3.368 14.299-4.65 25.672-15.265 33.216-31.005 1.286-2.681 2.337-5.137 2.337-5.457 0-.32.429-1.646.952-2.947 5.035-12.505 8.998-41.145 8.55-61.8056l-.172-7.9687-35.269.0308c-19.3981.0166-35.3971.1579-35.5534.3144-.5739.5722-.6153 35.9491-.0439 37.0171.522.976 1.0081 1.031 9.0452 1.031 6.7002 0 8.6185.151 9.0841.713.802.966.24 7.532-1.0531 12.315-1.1437 4.23-3.4882 8.945-5.7889 11.641-3.93 4.606-11.7184 6.462-17.2048 4.1-10.1057-4.35-15.007-22.001-14.9949-54.0004.0121-30.8413 4.6759-48.1347 14.245-52.8197 2.4515-1.2 3.507-1.413 6.9287-1.3978 4.7757.0212 7.6896 1.1349 10.6075 4.0547 2.0656 2.0665 5.1923 8.2912 5.6436 11.2347.5633 3.6758 1.283 4.1648 4.2849 2.9128.91-.3805 2.45-.9639 3.421-1.2969.971-.3331 3.58-1.2874 5.799-2.121 2.219-.8337 6.871-2.5358 10.339-3.7828 3.467-1.2464 7.098-2.5585 8.068-2.9158 3.099-1.1394 13.288-4.8581 15.508-5.66 1.368-.494 2.143-1.0814 2.143-1.6249 0-1.7384-5.568-11.8407-9.43-17.1081-6.195-8.4507-11.14-13.3214-18.499-18.2214-6.338-4.21978-18.947-9.15309-23.3954-9.15309-.8589 0-2.0979-.20387-2.753-.453162C92.4866.312205 80.4509-.0869676 77.1583.394959ZM227.44.40808c-6.472.84224-7.995 1.12332-11.346 2.09474-4.702 1.36252-10.625 3.82817-13.112 5.45764-1.11.72667-2.369 1.45638-2.798 1.62089-1.36.52225-7.68 5.48285-10.733 8.42585-3.305 3.1843-8.53 9.3737-10.487 12.4216-.713 1.1102-2.095 3.2676-3.072 4.7941-5.984 9.3564-10.744 23.4782-13.863 41.1278-1.321 7.4792-1.312 38.2983.014 46.6783 6.055 38.272 24.576 64.424 51.792 73.136 17.626 5.642 37.207 3.373 53.193-6.163 2.282-1.361 8.721-6.232 10.77-8.148 5.492-5.133 12.615-14.831 16.348-22.258 4.758-9.467 9.051-22.929 10.455-32.782.237-1.665.717-4.504 1.066-6.308.431-2.226.639-8.714.647-20.185.014-18.8639-.405-23.1251-3.545-36.0816-6.16-25.4129-17.631-43.0469-35.431-54.46377-6.485-4.15971-14.583-7.37272-21.138-8.38755-1.58-.24474-4.349-.675201-6.152-.957292-3.624-.566201-8.367-.574779-12.608-.022708ZM304.72 25.761l.131 22.3301 14.351.1463c7.893.0808 14.474.27 14.625.4209.15.1504.387 33.3529.526 73.7827l.252 73.508 24.711.121c13.591.067 24.997-.062 25.347-.286.509-.325.636-14.986.628-72.621-.007-45.6849.17-72.6885.481-73.507l.492-1.2934 11.236-.1358 11.237-.1357.131-22.3301L409 3.43085H304.588l.132 22.33015Zm-64.656 24.3123c4.068 2.5514 7.007 6.7076 8.985 12.7067 2.7 8.1847 3.241 10.7361 4.111 19.374.572 5.6736.581 31.595.013 36.081-2.174 17.161-6.845 27.83-13.856 31.645-2.843 1.547-8.274 1.571-11.12.047-5.894-3.154-10.197-10.809-12.426-22.103-.274-1.388-.713-3.546-.975-4.795-1.457-6.938-1.731-33.311-.446-42.8935 1.47-10.9622 3.508-18.1533 6.604-23.3132 2.191-3.651 3.771-5.2946 6.739-7.0109 2.124-1.2288 3.08-1.4594 6.067-1.4634 3.17-.0041 3.838.1786 6.304 1.7253ZM86.4687 208.944c-.1316.347-.1815 43.89-.1104 96.764l.1296 96.133 47.3491.128c34.779.095 47.533-.023 48.041-.444.569-.473.667-4.451.559-22.585l-.132-22.012-21.852-.252c-20.893-.242-21.883-.296-22.567-1.232-.575-.788-.716-3.616-.716-14.452 0-12.088.091-13.583.883-14.541.867-1.05 1.215-1.07 20.298-1.192l19.416-.123v-42.894l-19.583-.252c-18.646-.241-19.617-.3-20.298-1.232-.574-.786-.716-3.545-.716-13.926 0-11.869.076-13.015.917-13.775.815-.738 3.303-.844 22.567-.961l21.651-.132.132-21.414c.103-16.796-.006-21.501-.504-21.818-.35-.222-21.919-.407-47.93-.412-37.3776-.006-47.3446.125-47.5343.624Zm-63.4236.252c-.5542.988-2.5659 8.708-7.9891 30.657-1.0974 4.44-2.3153 9.209-2.7061 10.597-.817 2.898-6.08948 23.857-7.04564 28.007-.3515 1.527-1.68891 6.86-2.97186 11.852S0 299.786 0 300.276c0 .835 1.21486.89 19.6804.89h19.6804l.5442-1.388c.299-.763 1.5179-4.113 2.7081-7.443 1.1896-3.331 4.1332-11.506 6.5403-18.167 2.4075-6.661 5.0677-14.042 5.9124-16.401.8447-2.359 1.9915-5.538 2.5483-7.065.5567-1.526 1.3026-3.57 1.6566-4.541.3545-.972 1.3162-3.583 2.1372-5.804 5.4757-14.807 11.0735-30.842 10.8788-31.161-.127-.208-11.2106-.378-24.6301-.378s-24.4945.17-24.6115.378Zm189.5309.252c-.191.581-.93 6.295-2.298 17.789-.298 2.498-.742 6.699-.987 9.335-.246 2.637-.682 5.816-.97 7.065-.288 1.249-.543 3.747-.566 5.551-.023 1.804-.253 4.416-.51 5.804-.485 2.62-1.651 12.462-2.512 21.194-.273 2.776-.836 7.231-1.25 9.901-.414 2.67-.753 5.851-.753 7.068 0 1.218-.217 2.97-.482 3.894-.265.924-.612 3.647-.773 6.053-.16 2.404-.514 5.507-.788 6.895s-.714 5.021-.979 8.074c-.264 3.053-.715 7.368-1.002 9.588-.881 6.827-1.969 15.994-2.276 19.176-.161 1.666-.503 4.618-.762 6.561-.258 1.942-.819 6.598-1.246 10.345-.427 3.747-1.014 8.856-1.304 11.354-.29 2.498-.843 7.38-1.228 10.85-.386 3.469-.937 7.784-1.225 9.588-.287 1.804-.527 3.904-.533 4.668l-.01 1.387h26.71c25.892 0 26.727-.03 27.233-.976.287-.537.531-3.773.543-7.191.013-3.418.235-9.281.494-13.027.26-3.747.71-12.604 1-19.681.29-7.078.862-17.15 1.271-22.383.409-5.233.748-12.841.754-16.906.006-4.064.243-8.98.526-10.922.285-1.943.694-8.591.91-14.773.25-7.172.599-11.446.962-11.809.85-.85 1.429.982 2.34 7.405.433 3.053 1.033 7.141 1.332 9.084.299 1.943.749 5.531 1 7.973.251 2.443.573 4.63.716 4.862.143.231.591 2.661.996 5.399 1.063 7.183 1.728 11.465 2.538 16.333.957 5.755 1.969 12.023 3.751 23.214.818 5.134 1.761 11.039 2.096 13.12.335 2.082.909 5.715 1.274 8.074s1.022 6.447 1.458 9.084c.437 2.636 1.013 6.357 1.28 8.268.267 1.911.743 3.784 1.057 4.163.803.969 40.394 1.025 41.185.058.283-.346.792-2.447 1.13-4.667.338-2.221.928-5.043 1.31-6.272.384-1.229.697-2.886.697-3.681 0-.796.326-2.856.724-4.578.397-1.723 1.097-5.289 1.555-7.926.458-2.636 1.179-6.369 1.602-8.294.424-1.926.953-4.651 1.177-6.056.224-1.405.75-4.258 1.168-6.34.419-2.081 1.018-5.261 1.332-7.065.778-4.472 1.817-9.916 2.985-15.643.85-4.171 2.045-10.616 4.07-21.952.823-4.607 1.969-12.481 2.741-18.829.711-5.846.89-6.467 1.711-5.959 1.092.676 1.237 2.879 2.859 43.46.411 10.269.967 23.099 1.236 28.511.269 5.413.618 13.815.775 18.672.233 7.231 1.126 26.638 1.248 27.129.017.071 11.776.071 26.13 0l26.097-.131-.056-1.514c-.111-2.964-1.736-19.227-2.219-22.204-.27-1.665-.506-4.617-.525-6.56-.018-1.943-.25-4.668-.516-6.056-.265-1.388-.691-5.362-.948-8.831-.257-3.469-.705-8.011-.997-10.093-.291-2.081-.774-6.509-1.073-9.84-.949-10.555-2.911-31.454-4.217-44.913-.404-4.163-.976-10.181-1.272-13.372-.296-3.192-.876-8.756-1.289-12.364-.863-7.552-1.59-15.086-2.29-23.718-.27-3.33-.716-7.437-.992-9.125-.274-1.688-.501-4.299-.504-5.803-.002-1.504-.255-4.21-.562-6.014-.307-1.804-.703-5.211-.879-7.57l-.32-4.289h-62.457l-.659 2.775c-.363 1.527-.866 4.025-1.118 5.551-.253 1.527-.722 4.138-1.043 5.804-.322 1.665-.891 4.617-1.265 6.56-.374 1.943-.945 4.895-1.269 6.56-.78 4.012-3.466 18.01-4.066 21.195-.261 1.388-.948 5.021-1.526 8.074-2.307 12.188-4.519 25.492-4.826 29.017-.133 1.526-.571 4.296-.973 6.155-.401 1.859-.733 3.902-.737 4.541-.005.64-.222 1.501-.484 1.915-1.068 1.69-1.779-.55-2.368-7.462-.923-10.819-1.616-17.254-1.91-17.73-.148-.24-.503-2.22-.789-4.399-.285-2.18-.732-4.985-.991-6.234-.259-1.249-.567-3.105-.683-4.126-.287-2.519-1.738-10.531-2.635-14.545-.402-1.804-.73-4.029-.727-4.943.002-.914-.315-3.071-.704-4.794-.719-3.178-1.265-6.364-2.57-14.99-.399-2.637-.959-5.588-1.245-6.557-.286-.97-.52-2.533-.52-3.474 0-.941-.218-2.532-.484-3.536s-.617-2.676-.78-3.717l-.295-1.892h-31.764c-24.964 0-31.808.135-31.972.63Z" clip-rule="evenodd"/></svg>
